<svg id="Layer_1" data-name="Layer 1" xmlns="http://www.w3.org/2000/svg" viewBox="0 0 120 36">
    <defs>
        <style>.cls-1{fill:#202020;}</style>
    </defs>
    <path class="cls-1" d="M10,30 L10,6 L12,6 L12,30 Z" />
    <path class="cls-1"
        d="M16,30 L16,10 L18,10 L18,24 L22,10 L24,10 L20,24 L24,30 L22,30 L18,26 L16,30 Z" />
    <path class="cls-1" d="M28,30 L28,6 L30,6 L30,30 Z" />
    <path class="cls-1" d="M36,30 L36,6 L38,6 L38,28 L42,28 L42,30 Z" />
    <path class="cls-1" d="M48,30 L48,6 L50,6 L50,30 Z" />
    <path class="cls-1" d="M58,30 L58,24 L56,24 L56,30 Z M58,24 L58,6 L56,6 L56,24 Z" />
</svg>
  